# xmcd
#
# Track frame offsets: 
#        150
#        12407
#        23887
#        34215
#        47397
#        59270
#        71702
#        83855
#        96585
#        109062
#        119540
#        133375
#        146250
#        159587
#
# Disc length: 2272 seconds
#
# Revision: 0
# Processed by: cddbd v1.5.2PL0 Copyright (c) Steve Scherf et al.
# Submitted via: ExactAudioCopy v0.95b4
#
DISCID=c608de0e
DTITLE=Various Artist - The Yamaha Legend Series (Country)
DYEAR=1900
DGENRE=
TTITLE0=Lynn Anderson - Stand By Your Man
TTITLE1=Patsy Cline - The Heart You Break May Be Your Own
TTITLE2=Waylon Jennings - White Lightning
TTITLE3=Kenny Rogers - Ruby Don't Take Your Love To Town
TTITLE4=Kenny Rogers - Elvira
TTITLE5=Freddy Fender - Wasted Days and Wasted Nights
TTITLE6=Freddy Fender - Before the Next Teardrop Falls
TTITLE7=Willie Nelson - I Just Don't Understand
TTITLE8=Johnny Paycheck - Take This Job and Shove It
TTITLE9=Mickey Gilley - I'm to Blame
TTITLE10=Frankie Laine - Cool Water
TTITLE11=Frankie Laine - Moonlight Gambler
TTITLE12=Lynn Anderson - Rose Garden
TTITLE13=Sammi Smith - Help Me Make It Through the Night
EXTD=
EXTT0=
EXTT1=
EXTT2=
EXTT3=
EXTT4=
EXTT5=
EXTT6=
EXTT7=
EXTT8=
EXTT9=
EXTT10=
EXTT11=
EXTT12=
EXTT13=
PLAYORDER=
